<?xml version="1.0" encoding="utf-8" standalone="no"?>
<!DOCTYPE svg PUBLIC "-//W3C//DTD SVG 1.1//EN"
  "http://www.w3.org/Graphics/SVG/1.1/DTD/svg11.dtd">
<!-- Created with matplotlib (http://matplotlib.sourceforge.net/) -->
<svg height="267pt" version="1.1" viewBox="0 0 267 267" width="267pt" xmlns="http://www.w3.org/2000/svg" xmlns:xlink="http://www.w3.org/1999/xlink">
 <defs>
  <style type="text/css">
*{stroke-linecap:square;stroke-linejoin:round;}
  </style>
 </defs>
 <g id="figure_1">
  <g id="patch_1">
   <path d="
M0 267.3
L267.3 267.3
L267.3 5.68434e-14
L0 5.68434e-14
z
" style="fill:#ffffff;"/>
  </g>
  <g id="axes_1">
   <g id="patch_2">
    <path clip-path="url(#p8885ea574e)" d="
M133.65 133.65
L133.65 133.65
L133.65 133.65
L133.65 133.65
L133.65 133.65
L133.65 133.65
L133.65 133.65
L133.65 133.65
L133.65 133.65
L133.65 133.65
L133.65 133.65
L133.65 133.65
L133.65 133.65
L133.65 133.65
L133.65 133.65
L133.65 133.65
L133.65 133.65
L133.65 133.65
L133.65 133.65
L133.65 133.65
L133.65 133.65
L133.65 133.65
L133.65 133.65
L133.65 133.65
L133.65 133.65
L133.65 133.65
L133.65 133.65
L133.65 133.65
L133.65 133.65
L133.65 133.65
L133.65 133.65
L133.65 133.65
L133.65 133.65
L133.65 133.65
L133.65 133.65
L133.65 133.65
L133.65 133.65
L133.65 133.65
L133.65 133.65
L133.65 133.65
L133.65 133.65
L133.65 133.65
L133.65 133.65
L133.65 133.65
L133.65 133.65
L133.65 133.65
L133.65 133.65
L133.65 133.65
L133.65 133.65
L133.65 133.65
L133.65 133.65
L133.65 133.65
L133.65 133.65
L133.65 133.65
L133.65 133.65
L133.65 133.65
L133.65 133.65
L133.65 133.65
L133.65 133.65
L133.65 133.65
L133.65 133.65
L133.65 133.65
L133.65 133.65
L133.65 133.65
L133.65 133.65
L133.65 133.65
L133.65 133.65
L133.65 133.65
L133.65 133.65
L133.65 133.65
L133.65 133.65
L133.65 133.65
L133.65 133.65
L133.65 133.65
L133.65 133.65
L133.65 133.65
L133.65 133.65
L133.65 133.65
L133.65 133.65
L133.65 133.65
L133.65 133.65
L133.65 133.65
L133.65 133.65
L133.65 133.65
L133.65 133.65
L133.65 133.65
L133.65 133.65
L133.65 133.65
L133.65 133.65
L133.65 133.65
L133.65 133.65
L133.65 133.65
L133.65 133.65
L133.65 133.65
L133.65 133.65
L133.65 133.65
L133.65 133.65
L133.65 133.65
L133.65 133.65
L133.65 133.65
L133.65 133.65
L133.65 133.65
L133.65 133.65
L133.65 133.65
L133.65 133.65
L133.65 133.65
L133.65 133.65
L133.65 133.65
L133.65 133.65
L133.65 133.65
L133.65 133.65
L133.65 133.65
L133.65 133.65
L133.65 133.65
L133.65 133.65
L133.65 133.65
L133.65 133.65
L133.65 133.65
L133.65 133.65
L133.65 133.65
L133.65 133.65
L133.65 133.65
L133.65 133.65
L133.65 133.65
L133.65 133.65
L133.65 133.65
L133.65 133.65
L133.65 133.65
L133.65 133.65
L133.65 133.65
L133.65 133.65
L133.65 133.65
L133.65 133.65
L133.65 133.65
L133.65 133.65
L133.65 133.65
L133.65 133.65
L133.65 133.65
L133.65 133.65
L133.65 133.65
L133.65 133.65
L133.65 133.65
L133.65 133.65
L133.65 133.65
L133.65 133.65
L133.65 133.65
L133.65 133.65
L133.65 133.65
L133.65 133.65
L133.65 133.65
L133.65 133.65
L133.65 133.65
L133.65 133.65
L133.65 133.65
L133.65 133.65
L133.65 133.65
L133.65 133.65
L133.65 133.65
L133.65 133.65
L133.65 133.65
L133.65 133.65
L133.65 133.65
L133.65 133.65
L133.65 133.65
L133.65 133.65
L133.65 133.65
L133.65 133.65
L133.65 133.65
L133.65 133.65
L133.65 133.65
L133.65 133.65
L133.65 133.65
L133.65 133.65
L133.65 133.65
L133.65 133.65
L133.65 133.65
L133.65 133.65
L133.65 133.65
L133.65 133.65
L133.65 133.65
L133.65 133.65
L133.65 133.65
L133.65 133.65
L133.65 133.65
L133.65 133.65
L133.65 133.65
L133.65 133.65
L133.65 133.65
L133.65 133.65
L133.65 133.65
L133.65 133.65
L133.65 133.65
L133.65 133.65
L133.65 133.65
L133.65 133.65
L133.65 133.65
L133.65 133.65
L133.65 133.65
L133.65 133.65
L133.65 133.65
L133.65 133.65
L133.65 133.65
L133.65 133.65
L133.65 133.65
L133.65 133.65
L133.65 133.65
L133.65 133.65
L133.65 133.65
L133.65 133.65
L133.65 133.65
L133.65 133.65
L133.65 133.65
L133.65 133.65
L133.65 133.65
L133.65 133.65
L133.65 133.65
L133.65 133.65
L133.65 133.65
L133.65 133.65
L133.65 133.65
L133.65 133.65
L133.65 133.65
L133.65 133.65
L133.65 133.65
L133.65 133.65
L133.65 133.65
L133.65 133.65
L133.65 133.65
L133.65 133.65
L133.65 133.65
L133.65 133.65
L133.65 133.65
L133.65 133.65
L133.65 133.65
L133.65 133.65
L133.65 133.65
L133.65 133.65
L133.65 133.65
L133.65 133.65
L133.65 133.65
L133.65 133.65
L133.65 133.65
L133.65 133.65
L133.65 133.65
L133.65 133.65
L133.65 133.65
L133.65 133.65
L133.65 133.65
L133.65 133.65
L133.65 133.65
L133.65 133.65
L133.65 133.65
L133.65 133.65
L133.65 133.65
L133.65 133.65
L133.65 133.65
L133.65 133.65
L133.65 133.65
L133.65 133.65
L133.65 133.65
L133.65 133.65
L133.65 133.65
L133.65 133.65
L133.65 133.65
L133.65 133.65
L133.65 133.65
L133.65 133.65
L133.65 133.65
L133.65 133.65
L133.65 133.65
L133.65 133.65
L133.65 133.65
L133.65 133.65
L133.65 133.65
L133.65 133.65
L133.65 133.65
L133.65 133.65
L133.65 133.65
L133.65 133.65
L133.65 133.65
L133.65 133.65
L133.65 133.65
L133.65 133.65
L133.65 133.65
L133.65 133.65
L133.65 133.65
L133.65 133.65
L133.65 133.65
L133.65 133.65
L133.65 133.65
L133.65 133.65
L133.65 133.65
L133.65 133.65
L133.65 133.65
L133.65 133.65
L133.65 133.65
L133.65 133.65
L133.65 133.65
L133.65 133.65
L133.65 133.65
L133.65 133.65
L133.65 133.65
L133.65 133.65
L133.65 133.65
L133.65 133.65
L133.65 133.65
L133.65 133.65
L133.65 133.65
L133.65 133.65
L133.65 133.65
L133.65 133.65
L133.65 133.65
L133.65 133.65
L133.65 133.65
L133.65 133.65
L133.65 133.65
L133.65 133.65
L133.65 133.65
L133.65 133.65
L133.65 133.65
L133.65 133.65
L133.65 133.65
L133.65 133.65
L133.65 133.65
L133.65 133.65
L133.65 133.65
L133.65 133.65
L133.65 133.65
L133.65 133.65
L133.65 133.65
L133.65 133.65
L133.65 133.65
L133.65 133.65
L133.65 133.65
L133.65 133.65
L133.65 133.65
L133.65 133.65
L133.65 133.65
L133.65 133.65
L133.65 133.65
L133.65 133.65
L133.65 133.65
L133.65 133.65
L133.65 133.65
L133.65 133.65
L133.65 133.65
L133.65 133.65
L133.65 133.65
L133.65 133.65
L133.65 133.65
L133.65 133.65
L133.65 133.65
L133.65 133.65
L133.65 133.65
L133.65 133.65
L133.65 133.65
L133.65 133.65
L133.65 133.65
L133.65 133.65
L133.65 133.65
L133.65 133.65
L133.65 133.65
L133.65 133.65
L133.65 133.65
L133.65 133.65
L133.65 133.65
L133.65 133.65
L133.65 133.65
L133.65 133.65
L133.65 133.65
L133.65 133.65
L133.65 133.65
L133.65 133.65
L133.65 133.65
L133.65 133.65
L133.65 133.65
L133.65 133.65
L133.65 133.65
L133.65 133.65
L133.65 133.65
L133.65 133.65
L133.65 133.65
L133.65 133.65
L133.65 133.65
L133.65 133.65
L133.65 133.65
L133.65 133.65
L133.65 133.65
L133.65 133.65
L133.65 133.65
L133.65 133.65
L133.65 133.65
L133.65 133.65
L133.65 133.65
L133.65 133.65
L133.65 133.65
L133.65 133.65
L133.65 133.65
L133.65 133.65
L133.65 133.65
z
" style="opacity:0.2;stroke:#000000;"/>
   </g>
   <g id="LineCollection_1">
    <defs>
     <path d="
M133.65 -133.65
L133.65 -133.65
L133.65 -133.65
L133.65 -133.65
L133.65 -133.65
L133.65 -133.65
L133.65 -133.65
L133.65 -133.65
L133.65 -133.65
L133.65 -133.65
L133.65 -133.65
L133.65 -133.65
L133.65 -133.65
L133.65 -133.65
L133.65 -133.65
L133.65 -133.65
L133.65 -133.65
L133.65 -133.65
L133.65 -133.65
L133.65 -133.65
L133.65 -133.65
L133.65 -133.65
L133.65 -133.65
L133.65 -133.65
L133.65 -133.65
L133.65 -133.65
L133.65 -133.65
L133.65 -133.65
L133.65 -133.65
L133.65 -133.65
L133.65 -133.65
L133.65 -133.65
L133.65 -133.65
L133.65 -133.65
L133.65 -133.65
L133.65 -133.65
L133.65 -133.65
L133.65 -133.65
L133.65 -133.65
L133.65 -133.65
L133.65 -133.65
L133.65 -133.65
L133.65 -133.65
L133.65 -133.65
L133.65 -133.65
L133.65 -133.65
L133.65 -133.65
L133.65 -133.65
L133.65 -133.65
L133.65 -133.65
L133.65 -133.65
L133.65 -133.65
L133.65 -133.65
L133.65 -133.65
L133.65 -133.65
L133.65 -133.65
L133.65 -133.65
L133.65 -133.65
L133.65 -133.65
L133.65 -133.65
L133.65 -133.65
L133.65 -133.65
L133.65 -133.65
L133.65 -133.65
L133.65 -133.65
L133.65 -133.65
L133.65 -133.65
L133.65 -133.65
L133.65 -133.65
L133.65 -133.65
L133.65 -133.65
L133.65 -133.65
L133.65 -133.65
L133.65 -133.65
L133.65 -133.65
L133.65 -133.65
L133.65 -133.65" id="C0_0_4eac0fdddd"/>
     <path d="
M133.65 -133.65
L133.65 -133.65" id="C0_1_679f2376a8"/>
     <path d="
M133.65 -133.65
L154.728 -111.912" id="C0_2_931e40705a"/>
     <path d="
M133.65 -133.65
L140.128 -163.228" id="C0_3_3b608e1321"/>
     <path d="
M133.65 -133.65
L113.251 -156.027" id="C0_4_21fb46a45f"/>
     <path d="
M133.65 -133.65
L103.886 -139.214" id="C0_5_c927d9813d"/>
     <path d="
M133.184 -103.375
L134.697 -103.389
L136.209 -103.479
L137.713 -103.645
L139.208 -103.885
L140.688 -104.2
L142.152 -104.589
L143.593 -105.05
L145.01 -105.583
L146.399 -106.186
L147.756 -106.857
L149.077 -107.596
L150.36 -108.399
L151.601 -109.266
L152.797 -110.194
L153.946 -111.18
L155.043 -112.222
L156.088 -113.318
L157.076 -114.465
L158.005 -115.66
L158.874 -116.9
L159.68 -118.181
L160.42 -119.502
L161.094 -120.857
L161.699 -122.245
L162.234 -123.661
L162.697 -125.102
L163.088 -126.565
L163.406 -128.045
L163.649 -129.539
L163.817 -131.043
L163.909 -132.554
L163.925 -133.184" id="C0_6_7b8fbbc105"/>
     <path d="
M154.728 -111.912
L154.728 -111.912" id="C0_7_69d0aa8309"/>
     <path d="
M133.184 -103.375
L117.077 -75.4036" id="C0_8_af249081d6"/>
     <path d="
M159.145 -117.316
L187.002 -105" id="C0_9_9bb4c82150"/>
     <path d="
M162.208 -123.587
L193.177 -122.522" id="C0_a_21fee700a5"/>
     <path d="
M163.324 -127.629
L194.208 -133.65" id="C0_b_eac417f066"/>
     <path d="
M163.753 -130.392
L193.749 -141.092" id="C0_c_23de582e1a"/>
     <path d="
M163.925 -133.184
L192.379 -148.421" id="C0_d_fabd2de2fe"/>
     <path d="
M79.4406 -106.657
L80.8574 -103.981
L82.4062 -101.38
L84.0831 -98.8591
L85.8839 -96.4252
L87.804 -94.0844
L89.8388 -91.8425
L91.983 -89.7051
L94.2314 -87.6776
L96.5783 -85.7649
L99.0179 -83.972
L101.544 -82.3032
L104.15 -80.7627
L106.831 -79.3544
L109.578 -78.0819
L112.385 -76.9482
L115.246 -75.9563
L118.152 -75.1085
L121.097 -74.4071
L124.074 -73.8538
L127.074 -73.4499
L130.091 -73.1965
L133.117 -73.0942
L136.144 -73.1433
L139.165 -73.3435
L142.173 -73.6946
L145.158 -74.1954
L148.116 -74.8449
L151.037 -75.6414
L153.914 -76.5829
L156.741 -77.667
L159.51 -78.891
L162.214 -80.2519
L164.848 -81.7462
L165.53 -82.1624" id="C0_e_aea9fb1295"/>
     <path d="
M117.077 -75.4036
L117.077 -75.4036" id="C0_f_76bc009feb"/>
     <path d="
M79.4406 -106.657
L44.3595 -116.959" id="C0_10_d2664be312"/>
     <path d="
M82.1624 -101.77
L47.0874 -106.112" id="C0_11_0d83091a31"/>
     <path d="
M85.3236 -97.1556
L51.1275 -95.6836" id="C0_12_2d26e54162"/>
     <path d="
M88.897 -92.8522
L56.4186 -85.8304" id="C0_13_fd87503057"/>
     <path d="
M92.8522 -88.897
L62.8805 -76.702" id="C0_14_7115d49bf9"/>
     <path d="
M97.1556 -85.3236
L70.4151 -68.4369" id="C0_15_f5cecd1b5d"/>
     <path d="
M101.77 -82.1624
L78.9084 -61.1603" id="C0_16_bd978275ad"/>
     <path d="
M106.657 -79.4406
L88.2314 -54.9827" id="C0_17_b01125fe5b"/>
     <path d="
M111.774 -77.1812
L98.2429 -49.9975" id="C0_18_9f2b2389c1"/>
     <path d="
M117.077 -75.4036
L108.791 -46.2804" id="C0_19_fb1d5302c4"/>
     <path d="
M122.522 -74.123
L119.716 -43.8878" id="C0_1a_8b9aa6f31a"/>
     <path d="
M128.062 -73.3502
L130.853 -42.8559" id="C0_1b_682303fb00"/>
     <path d="
M133.65 -73.0919
L142.031 -43.2003" id="C0_1c_47c341d30a"/>
     <path d="
M139.238 -73.3502
L153.083 -44.9158" id="C0_1d_60dd7fa5b7"/>
     <path d="
M144.778 -74.123
L163.84 -47.9765" id="C0_1e_4c7ef19143"/>
     <path d="
M150.223 -75.4036
L174.14 -52.3359" id="C0_1f_e5590bc2f2"/>
     <path d="
M155.526 -77.1812
L183.825 -57.9279" id="C0_20_efef34ccba"/>
     <path d="
M160.643 -79.4406
L192.75 -64.6678" id="C0_21_19386136df"/>
     <path d="
M165.53 -82.1624
L200.78 -72.4534" id="C0_22_09304aab35"/>
     <path d="
M184.131 -100.2
L185.74 -102.765
L187.219 -105.407
L188.563 -108.119
L189.418 -110.045" id="C0_23_f377932b76"/>
     <path d="
M187.002 -105
L187.002 -105" id="C0_24_47838d9948"/>
     <path d="
M184.131 -100.2
L207.791 -81.1666" id="C0_25_da3a379c2d"/>
     <path d="
M187.002 -105
L213.679 -90.6755" id="C0_26_8c96b31db7"/>
     <path d="
M189.418 -110.045
L218.353 -100.836" id="C0_27_710f0a4a5c"/>
     <path d="
M192.6 -119.785
L193.219 -122.749
L193.627 -125.284" id="C0_28_142da72c61"/>
     <path d="
M193.177 -122.522
L193.177 -122.522" id="C0_29_18ff74c272"/>
     <path d="
M192.6 -119.785
L221.744 -111.494" id="C0_2a_a3620ba583"/>
     <path d="
M193.627 -125.284
L223.799 -122.487" id="C0_2b_cdd14888e1"/>
     <path d="
M194.208 -133.65" id="C0_2c_eb5e351739"/>
     <path d="
M194.208 -133.65
L194.208 -133.65" id="C0_2d_c8ca5a68f0"/>
     <path d="
M194.208 -133.65
L224.487 -133.65" id="C0_2e_52fbd61ff7"/>
     <path d="
M193.749 -141.092" id="C0_2f_ed58c0385a"/>
     <path d="
M193.749 -141.092
L193.749 -141.092" id="C0_30_702d604361"/>
     <path d="
M193.749 -141.092
L223.799 -144.813" id="C0_31_7ce8f2a428"/>
     <path d="
M192.379 -148.421" id="C0_32_9d169876c3"/>
     <path d="
M192.379 -148.421
L192.379 -148.421" id="C0_33_cb3e1caebd"/>
     <path d="
M192.379 -148.421
L221.744 -155.806" id="C0_34_fc5f9fb45b"/>
     <path d="
M147.975 -160.326
L146.624 -161.009
L145.24 -161.623
L143.828 -162.167
L142.39 -162.64
L140.93 -163.041
L139.452 -163.368
L137.959 -163.621
L136.456 -163.799
L134.946 -163.901
L133.432 -163.928
L131.919 -163.88
L131.786 -163.872" id="C0_35_fac973326c"/>
     <path d="
M140.128 -163.228
L140.128 -163.228" id="C0_36_2dfa41c205"/>
     <path d="
M147.975 -160.326
L167.1 -184.131" id="C0_37_4b2ef34c83"/>
     <path d="
M131.786 -163.872
L124.361 -193.491" id="C0_38_ced161a47b"/>
     <path d="
M186.095 -163.929
L184.516 -166.512
L182.81 -169.014
L180.981 -171.426
L179.034 -173.745
L176.973 -175.963
L174.804 -178.075
L172.533 -180.077
L170.164 -181.962
L167.703 -183.726
L165.158 -185.366
L162.534 -186.876
L159.838 -188.253
L157.076 -189.494
L154.256 -190.595
L151.384 -191.553
L148.468 -192.367
L145.515 -193.034
L142.532 -193.553
L141.092 -193.749" id="C0_39_8680e0c534"/>
     <path d="
M167.1 -184.131
L167.1 -184.131" id="C0_3a_d119bf2050"/>
     <path d="
M186.095 -163.929
L218.353 -166.464" id="C0_3b_5efe63da0b"/>
     <path d="
M183.077 -168.639
L213.679 -176.624" id="C0_3c_2be0cad853"/>
     <path d="
M179.638 -173.05
L207.791 -186.133" id="C0_3d_3e8cd7c89c"/>
     <path d="
M175.807 -177.125
L200.78 -194.847" id="C0_3e_b3689b4583"/>
     <path d="
M171.615 -180.83
L192.75 -202.632" id="C0_3f_5bdc76f79c"/>
     <path d="
M167.1 -184.131
L183.825 -209.372" id="C0_40_130a056dcf"/>
     <path d="
M162.3 -187.002
L174.14 -214.964" id="C0_41_5431304c71"/>
     <path d="
M157.255 -189.418
L163.84 -219.324" id="C0_42_140c15da7b"/>
     <path d="
M152.008 -191.358
L153.083 -222.384" id="C0_43_f84a400aa8"/>
     <path d="
M146.605 -192.806
L142.031 -224.1" id="C0_44_b084677152"/>
     <path d="
M141.092 -193.749
L130.853 -224.444" id="C0_45_feb362e639"/>
     <path d="
M124.361 -193.491" id="C0_46_eb29221968"/>
     <path d="
M124.361 -193.491
L124.361 -193.491" id="C0_47_d41de08849"/>
     <path d="
M124.361 -193.491
L119.716 -223.412" id="C0_48_29c922ba52"/>
     <path d="
M117.12 -159.019
L115.872 -158.161
L114.67 -157.242
L113.514 -156.264
L112.409 -155.229
L111.357 -154.14
L110.361 -153.001
L109.915 -152.45" id="C0_49_1b38d7dcc7"/>
     <path d="
M113.251 -156.027
L113.251 -156.027" id="C0_4a_702ff2c19d"/>
     <path d="
M117.12 -159.019
L103.371 -186.095" id="C0_4b_cde5225f05"/>
     <path d="
M109.915 -152.45
L84.2226 -168.639" id="C0_4c_89e10ce712"/>
     <path d="
M113.523 -190.766
L110.694 -189.688
L107.922 -188.471
L105.214 -187.117
L102.577 -185.629
L100.018 -184.011
L97.5433 -182.267
L95.1586 -180.401
L94.2498 -179.638" id="C0_4d_591b9c7f78"/>
     <path d="
M103.371 -186.095
L103.371 -186.095" id="C0_4e_0ebfedf156"/>
     <path d="
M113.523 -190.766
L108.791 -221.02" id="C0_4f_ddb0bde27b"/>
     <path d="
M108.339 -188.665
L98.2429 -217.302" id="C0_50_0a0476bcc8"/>
     <path d="
M103.371 -186.095
L88.2314 -212.317" id="C0_51_c3ad520e1d"/>
     <path d="
M98.6611 -183.077
L78.9084 -206.14" id="C0_52_ed02dbec32"/>
     <path d="
M94.2498 -179.638
L70.4151 -198.863" id="C0_53_122b38d783"/>
     <path d="
M85.8913 -170.884
L84.09 -168.451
L82.6595 -166.319" id="C0_54_24ed5b9ceb"/>
     <path d="
M84.2226 -168.639
L84.2226 -168.639" id="C0_55_8634ea6ee1"/>
     <path d="
M85.8913 -170.884
L62.8805 -190.598" id="C0_56_a5b782c48c"/>
     <path d="
M82.6595 -166.319
L56.4186 -181.47" id="C0_57_3769ac9726"/>
     <path d="
M103.886 -139.214" id="C0_58_6ed50523f4"/>
     <path d="
M103.886 -139.214
L103.886 -139.214" id="C0_59_46646e91b6"/>
     <path d="
M103.886 -139.214
L74.123 -144.778" id="C0_5a_b85d4cdccf"/>
     <path d="
M77.1812 -155.526
L76.1584 -152.677
L75.2794 -149.779
L74.5462 -146.842
L73.9607 -143.871
L73.5245 -140.875
L73.2385 -137.861
L73.1035 -134.837
L73.0919 -133.65" id="C0_5b_364d7985ed"/>
     <path d="
M74.123 -144.778
L74.123 -144.778" id="C0_5c_9c40ee0054"/>
     <path d="
M77.1812 -155.526
L51.1275 -171.616" id="C0_5d_67720da151"/>
     <path d="
M75.4036 -150.223
L47.0874 -161.188" id="C0_5e_8291f5c50b"/>
     <path d="
M74.123 -144.778
L44.3595 -150.341" id="C0_5f_847bcc07bc"/>
     <path d="
M73.3502 -139.238
L42.9851 -139.242" id="C0_60_a5b5c5e534"/>
     <path d="
M73.0919 -133.65
L42.9851 -128.058" id="C0_61_1881a33693"/>
    </defs>
    <g clip-path="url(#p8885ea574e)">
     <use style="fill:none;stroke:#000000;stroke-linecap:butt;stroke-width:0.75;" x="0" xlink:href="#C0_0_4eac0fdddd" y="267.3"/>
    </g>
    <g clip-path="url(#p8885ea574e)">
     <use style="fill:none;stroke:#000000;stroke-linecap:butt;stroke-width:0.75;" x="0" xlink:href="#C0_1_679f2376a8" y="267.3"/>
    </g>
    <g clip-path="url(#p8885ea574e)">
     <use style="fill:none;stroke:#000000;stroke-linecap:butt;stroke-width:0.75;" x="0" xlink:href="#C0_2_931e40705a" y="267.3"/>
    </g>
    <g clip-path="url(#p8885ea574e)">
     <use style="fill:none;stroke:#000000;stroke-linecap:butt;stroke-width:0.75;" x="0" xlink:href="#C0_3_3b608e1321" y="267.3"/>
    </g>
    <g clip-path="url(#p8885ea574e)">
     <use style="fill:none;stroke:#000000;stroke-linecap:butt;stroke-width:0.75;" x="0" xlink:href="#C0_4_21fb46a45f" y="267.3"/>
    </g>
    <g clip-path="url(#p8885ea574e)">
     <use style="fill:none;stroke:#000000;stroke-linecap:butt;stroke-width:0.75;" x="0" xlink:href="#C0_5_c927d9813d" y="267.3"/>
    </g>
    <g clip-path="url(#p8885ea574e)">
     <use style="fill:none;stroke:#000000;stroke-linecap:butt;stroke-width:0.75;" x="0" xlink:href="#C0_6_7b8fbbc105" y="267.3"/>
    </g>
    <g clip-path="url(#p8885ea574e)">
     <use style="fill:none;stroke:#000000;stroke-linecap:butt;stroke-width:0.75;" x="0" xlink:href="#C0_7_69d0aa8309" y="267.3"/>
    </g>
    <g clip-path="url(#p8885ea574e)">
     <use style="fill:none;stroke:#000000;stroke-linecap:butt;stroke-width:0.75;" x="0" xlink:href="#C0_8_af249081d6" y="267.3"/>
    </g>
    <g clip-path="url(#p8885ea574e)">
     <use style="fill:none;stroke:#000000;stroke-linecap:butt;stroke-width:0.75;" x="0" xlink:href="#C0_9_9bb4c82150" y="267.3"/>
    </g>
    <g clip-path="url(#p8885ea574e)">
     <use style="fill:none;stroke:#000000;stroke-linecap:butt;stroke-width:0.75;" x="0" xlink:href="#C0_a_21fee700a5" y="267.3"/>
    </g>
    <g clip-path="url(#p8885ea574e)">
     <use style="fill:none;stroke:#000000;stroke-linecap:butt;stroke-width:0.75;" x="0" xlink:href="#C0_b_eac417f066" y="267.3"/>
    </g>
    <g clip-path="url(#p8885ea574e)">
     <use style="fill:none;stroke:#000000;stroke-linecap:butt;stroke-width:0.75;" x="0" xlink:href="#C0_c_23de582e1a" y="267.3"/>
    </g>
    <g clip-path="url(#p8885ea574e)">
     <use style="fill:none;stroke:#000000;stroke-linecap:butt;stroke-width:0.75;" x="0" xlink:href="#C0_d_fabd2de2fe" y="267.3"/>
    </g>
    <g clip-path="url(#p8885ea574e)">
     <use style="fill:none;stroke:#000000;stroke-linecap:butt;stroke-width:0.75;" x="0" xlink:href="#C0_e_aea9fb1295" y="267.3"/>
    </g>
    <g clip-path="url(#p8885ea574e)">
     <use style="fill:none;stroke:#000000;stroke-linecap:butt;stroke-width:0.75;" x="0" xlink:href="#C0_f_76bc009feb" y="267.3"/>
    </g>
    <g clip-path="url(#p8885ea574e)">
     <use style="fill:none;stroke:#000000;stroke-linecap:butt;stroke-width:0.75;" x="0" xlink:href="#C0_10_d2664be312" y="267.3"/>
    </g>
    <g clip-path="url(#p8885ea574e)">
     <use style="fill:none;stroke:#000000;stroke-linecap:butt;stroke-width:0.75;" x="0" xlink:href="#C0_11_0d83091a31" y="267.3"/>
    </g>
    <g clip-path="url(#p8885ea574e)">
     <use style="fill:none;stroke:#000000;stroke-linecap:butt;stroke-width:0.75;" x="0" xlink:href="#C0_12_2d26e54162" y="267.3"/>
    </g>
    <g clip-path="url(#p8885ea574e)">
     <use style="fill:none;stroke:#000000;stroke-linecap:butt;stroke-width:0.75;" x="0" xlink:href="#C0_13_fd87503057" y="267.3"/>
    </g>
    <g clip-path="url(#p8885ea574e)">
     <use style="fill:none;stroke:#000000;stroke-linecap:butt;stroke-width:0.75;" x="0" xlink:href="#C0_14_7115d49bf9" y="267.3"/>
    </g>
    <g clip-path="url(#p8885ea574e)">
     <use style="fill:none;stroke:#000000;stroke-linecap:butt;stroke-width:0.75;" x="0" xlink:href="#C0_15_f5cecd1b5d" y="267.3"/>
    </g>
    <g clip-path="url(#p8885ea574e)">
     <use style="fill:none;stroke:#000000;stroke-linecap:butt;stroke-width:0.75;" x="0" xlink:href="#C0_16_bd978275ad" y="267.3"/>
    </g>
    <g clip-path="url(#p8885ea574e)">
     <use style="fill:none;stroke:#000000;stroke-linecap:butt;stroke-width:0.75;" x="0" xlink:href="#C0_17_b01125fe5b" y="267.3"/>
    </g>
    <g clip-path="url(#p8885ea574e)">
     <use style="fill:none;stroke:#000000;stroke-linecap:butt;stroke-width:0.75;" x="0" xlink:href="#C0_18_9f2b2389c1" y="267.3"/>
    </g>
    <g clip-path="url(#p8885ea574e)">
     <use style="fill:none;stroke:#000000;stroke-linecap:butt;stroke-width:0.75;" x="0" xlink:href="#C0_19_fb1d5302c4" y="267.3"/>
    </g>
    <g clip-path="url(#p8885ea574e)">
     <use style="fill:none;stroke:#000000;stroke-linecap:butt;stroke-width:0.75;" x="0" xlink:href="#C0_1a_8b9aa6f31a" y="267.3"/>
    </g>
    <g clip-path="url(#p8885ea574e)">
     <use style="fill:none;stroke:#000000;stroke-linecap:butt;stroke-width:0.75;" x="0" xlink:href="#C0_1b_682303fb00" y="267.3"/>
    </g>
    <g clip-path="url(#p8885ea574e)">
     <use style="fill:none;stroke:#000000;stroke-linecap:butt;stroke-width:0.75;" x="0" xlink:href="#C0_1c_47c341d30a" y="267.3"/>
    </g>
    <g clip-path="url(#p8885ea574e)">
     <use style="fill:none;stroke:#000000;stroke-linecap:butt;stroke-width:0.75;" x="0" xlink:href="#C0_1d_60dd7fa5b7" y="267.3"/>
    </g>
    <g clip-path="url(#p8885ea574e)">
     <use style="fill:none;stroke:#000000;stroke-linecap:butt;stroke-width:0.75;" x="0" xlink:href="#C0_1e_4c7ef19143" y="267.3"/>
    </g>
    <g clip-path="url(#p8885ea574e)">
     <use style="fill:none;stroke:#000000;stroke-linecap:butt;stroke-width:0.75;" x="0" xlink:href="#C0_1f_e5590bc2f2" y="267.3"/>
    </g>
    <g clip-path="url(#p8885ea574e)">
     <use style="fill:none;stroke:#000000;stroke-linecap:butt;stroke-width:0.75;" x="0" xlink:href="#C0_20_efef34ccba" y="267.3"/>
    </g>
    <g clip-path="url(#p8885ea574e)">
     <use style="fill:none;stroke:#000000;stroke-linecap:butt;stroke-width:0.75;" x="0" xlink:href="#C0_21_19386136df" y="267.3"/>
    </g>
    <g clip-path="url(#p8885ea574e)">
     <use style="fill:none;stroke:#000000;stroke-linecap:butt;stroke-width:0.75;" x="0" xlink:href="#C0_22_09304aab35" y="267.3"/>
    </g>
    <g clip-path="url(#p8885ea574e)">
     <use style="fill:none;stroke:#000000;stroke-linecap:butt;stroke-width:0.75;" x="0" xlink:href="#C0_23_f377932b76" y="267.3"/>
    </g>
    <g clip-path="url(#p8885ea574e)">
     <use style="fill:none;stroke:#000000;stroke-linecap:butt;stroke-width:0.75;" x="0" xlink:href="#C0_24_47838d9948" y="267.3"/>
    </g>
    <g clip-path="url(#p8885ea574e)">
     <use style="fill:none;stroke:#000000;stroke-linecap:butt;stroke-width:0.75;" x="0" xlink:href="#C0_25_da3a379c2d" y="267.3"/>
    </g>
    <g clip-path="url(#p8885ea574e)">
     <use style="fill:none;stroke:#000000;stroke-linecap:butt;stroke-width:0.75;" x="0" xlink:href="#C0_26_8c96b31db7" y="267.3"/>
    </g>
    <g clip-path="url(#p8885ea574e)">
     <use style="fill:none;stroke:#000000;stroke-linecap:butt;stroke-width:0.75;" x="0" xlink:href="#C0_27_710f0a4a5c" y="267.3"/>
    </g>
    <g clip-path="url(#p8885ea574e)">
     <use style="fill:none;stroke:#000000;stroke-linecap:butt;stroke-width:0.75;" x="0" xlink:href="#C0_28_142da72c61" y="267.3"/>
    </g>
    <g clip-path="url(#p8885ea574e)">
     <use style="fill:none;stroke:#000000;stroke-linecap:butt;stroke-width:0.75;" x="0" xlink:href="#C0_29_18ff74c272" y="267.3"/>
    </g>
    <g clip-path="url(#p8885ea574e)">
     <use style="fill:none;stroke:#000000;stroke-linecap:butt;stroke-width:0.75;" x="0" xlink:href="#C0_2a_a3620ba583" y="267.3"/>
    </g>
    <g clip-path="url(#p8885ea574e)">
     <use style="fill:none;stroke:#000000;stroke-linecap:butt;stroke-width:0.75;" x="0" xlink:href="#C0_2b_cdd14888e1" y="267.3"/>
    </g>
    <g clip-path="url(#p8885ea574e)">
     <use style="fill:none;stroke:#000000;stroke-linecap:butt;stroke-width:0.75;" x="0" xlink:href="#C0_2c_eb5e351739" y="267.3"/>
    </g>
    <g clip-path="url(#p8885ea574e)">
     <use style="fill:none;stroke:#000000;stroke-linecap:butt;stroke-width:0.75;" x="0" xlink:href="#C0_2d_c8ca5a68f0" y="267.3"/>
    </g>
    <g clip-path="url(#p8885ea574e)">
     <use style="fill:none;stroke:#000000;stroke-linecap:butt;stroke-width:0.75;" x="0" xlink:href="#C0_2e_52fbd61ff7" y="267.3"/>
    </g>
    <g clip-path="url(#p8885ea574e)">
     <use style="fill:none;stroke:#000000;stroke-linecap:butt;stroke-width:0.75;" x="0" xlink:href="#C0_2f_ed58c0385a" y="267.3"/>
    </g>
    <g clip-path="url(#p8885ea574e)">
     <use style="fill:none;stroke:#000000;stroke-linecap:butt;stroke-width:0.75;" x="0" xlink:href="#C0_30_702d604361" y="267.3"/>
    </g>
    <g clip-path="url(#p8885ea574e)">
     <use style="fill:none;stroke:#000000;stroke-linecap:butt;stroke-width:0.75;" x="0" xlink:href="#C0_31_7ce8f2a428" y="267.3"/>
    </g>
    <g clip-path="url(#p8885ea574e)">
     <use style="fill:none;stroke:#000000;stroke-linecap:butt;stroke-width:0.75;" x="0" xlink:href="#C0_32_9d169876c3" y="267.3"/>
    </g>
    <g clip-path="url(#p8885ea574e)">
     <use style="fill:none;stroke:#000000;stroke-linecap:butt;stroke-width:0.75;" x="0" xlink:href="#C0_33_cb3e1caebd" y="267.3"/>
    </g>
    <g clip-path="url(#p8885ea574e)">
     <use style="fill:none;stroke:#000000;stroke-linecap:butt;stroke-width:0.75;" x="0" xlink:href="#C0_34_fc5f9fb45b" y="267.3"/>
    </g>
    <g clip-path="url(#p8885ea574e)">
     <use style="fill:none;stroke:#000000;stroke-linecap:butt;stroke-width:0.75;" x="0" xlink:href="#C0_35_fac973326c" y="267.3"/>
    </g>
    <g clip-path="url(#p8885ea574e)">
     <use style="fill:none;stroke:#000000;stroke-linecap:butt;stroke-width:0.75;" x="0" xlink:href="#C0_36_2dfa41c205" y="267.3"/>
    </g>
    <g clip-path="url(#p8885ea574e)">
     <use style="fill:none;stroke:#000000;stroke-linecap:butt;stroke-width:0.75;" x="0" xlink:href="#C0_37_4b2ef34c83" y="267.3"/>
    </g>
    <g clip-path="url(#p8885ea574e)">
     <use style="fill:none;stroke:#000000;stroke-linecap:butt;stroke-width:0.75;" x="0" xlink:href="#C0_38_ced161a47b" y="267.3"/>
    </g>
    <g clip-path="url(#p8885ea574e)">
     <use style="fill:none;stroke:#000000;stroke-linecap:butt;stroke-width:0.75;" x="0" xlink:href="#C0_39_8680e0c534" y="267.3"/>
    </g>
    <g clip-path="url(#p8885ea574e)">
     <use style="fill:none;stroke:#000000;stroke-linecap:butt;stroke-width:0.75;" x="0" xlink:href="#C0_3a_d119bf2050" y="267.3"/>
    </g>
    <g clip-path="url(#p8885ea574e)">
     <use style="fill:none;stroke:#000000;stroke-linecap:butt;stroke-width:0.75;" x="0" xlink:href="#C0_3b_5efe63da0b" y="267.3"/>
    </g>
    <g clip-path="url(#p8885ea574e)">
     <use style="fill:none;stroke:#000000;stroke-linecap:butt;stroke-width:0.75;" x="0" xlink:href="#C0_3c_2be0cad853" y="267.3"/>
    </g>
    <g clip-path="url(#p8885ea574e)">
     <use style="fill:none;stroke:#000000;stroke-linecap:butt;stroke-width:0.75;" x="0" xlink:href="#C0_3d_3e8cd7c89c" y="267.3"/>
    </g>
    <g clip-path="url(#p8885ea574e)">
     <use style="fill:none;stroke:#000000;stroke-linecap:butt;stroke-width:0.75;" x="0" xlink:href="#C0_3e_b3689b4583" y="267.3"/>
    </g>
    <g clip-path="url(#p8885ea574e)">
     <use style="fill:none;stroke:#000000;stroke-linecap:butt;stroke-width:0.75;" x="0" xlink:href="#C0_3f_5bdc76f79c" y="267.3"/>
    </g>
    <g clip-path="url(#p8885ea574e)">
     <use style="fill:none;stroke:#000000;stroke-linecap:butt;stroke-width:0.75;" x="0" xlink:href="#C0_40_130a056dcf" y="267.3"/>
    </g>
    <g clip-path="url(#p8885ea574e)">
     <use style="fill:none;stroke:#000000;stroke-linecap:butt;stroke-width:0.75;" x="0" xlink:href="#C0_41_5431304c71" y="267.3"/>
    </g>
    <g clip-path="url(#p8885ea574e)">
     <use style="fill:none;stroke:#000000;stroke-linecap:butt;stroke-width:0.75;" x="0" xlink:href="#C0_42_140c15da7b" y="267.3"/>
    </g>
    <g clip-path="url(#p8885ea574e)">
     <use style="fill:none;stroke:#000000;stroke-linecap:butt;stroke-width:0.75;" x="0" xlink:href="#C0_43_f84a400aa8" y="267.3"/>
    </g>
    <g clip-path="url(#p8885ea574e)">
     <use style="fill:none;stroke:#000000;stroke-linecap:butt;stroke-width:0.75;" x="0" xlink:href="#C0_44_b084677152" y="267.3"/>
    </g>
    <g clip-path="url(#p8885ea574e)">
     <use style="fill:none;stroke:#000000;stroke-linecap:butt;stroke-width:0.75;" x="0" xlink:href="#C0_45_feb362e639" y="267.3"/>
    </g>
    <g clip-path="url(#p8885ea574e)">
     <use style="fill:none;stroke:#000000;stroke-linecap:butt;stroke-width:0.75;" x="0" xlink:href="#C0_46_eb29221968" y="267.3"/>
    </g>
    <g clip-path="url(#p8885ea574e)">
     <use style="fill:none;stroke:#000000;stroke-linecap:butt;stroke-width:0.75;" x="0" xlink:href="#C0_47_d41de08849" y="267.3"/>
    </g>
    <g clip-path="url(#p8885ea574e)">
     <use style="fill:none;stroke:#000000;stroke-linecap:butt;stroke-width:0.75;" x="0" xlink:href="#C0_48_29c922ba52" y="267.3"/>
    </g>
    <g clip-path="url(#p8885ea574e)">
     <use style="fill:none;stroke:#000000;stroke-linecap:butt;stroke-width:0.75;" x="0" xlink:href="#C0_49_1b38d7dcc7" y="267.3"/>
    </g>
    <g clip-path="url(#p8885ea574e)">
     <use style="fill:none;stroke:#000000;stroke-linecap:butt;stroke-width:0.75;" x="0" xlink:href="#C0_4a_702ff2c19d" y="267.3"/>
    </g>
    <g clip-path="url(#p8885ea574e)">
     <use style="fill:none;stroke:#000000;stroke-linecap:butt;stroke-width:0.75;" x="0" xlink:href="#C0_4b_cde5225f05" y="267.3"/>
    </g>
    <g clip-path="url(#p8885ea574e)">
     <use style="fill:none;stroke:#000000;stroke-linecap:butt;stroke-width:0.75;" x="0" xlink:href="#C0_4c_89e10ce712" y="267.3"/>
    </g>
    <g clip-path="url(#p8885ea574e)">
     <use style="fill:none;stroke:#000000;stroke-linecap:butt;stroke-width:0.75;" x="0" xlink:href="#C0_4d_591b9c7f78" y="267.3"/>
    </g>
    <g clip-path="url(#p8885ea574e)">
     <use style="fill:none;stroke:#000000;stroke-linecap:butt;stroke-width:0.75;" x="0" xlink:href="#C0_4e_0ebfedf156" y="267.3"/>
    </g>
    <g clip-path="url(#p8885ea574e)">
     <use style="fill:none;stroke:#000000;stroke-linecap:butt;stroke-width:0.75;" x="0" xlink:href="#C0_4f_ddb0bde27b" y="267.3"/>
    </g>
    <g clip-path="url(#p8885ea574e)">
     <use style="fill:none;stroke:#000000;stroke-linecap:butt;stroke-width:0.75;" x="0" xlink:href="#C0_50_0a0476bcc8" y="267.3"/>
    </g>
    <g clip-path="url(#p8885ea574e)">
     <use style="fill:none;stroke:#000000;stroke-linecap:butt;stroke-width:0.75;" x="0" xlink:href="#C0_51_c3ad520e1d" y="267.3"/>
    </g>
    <g clip-path="url(#p8885ea574e)">
     <use style="fill:none;stroke:#000000;stroke-linecap:butt;stroke-width:0.75;" x="0" xlink:href="#C0_52_ed02dbec32" y="267.3"/>
    </g>
    <g clip-path="url(#p8885ea574e)">
     <use style="fill:none;stroke:#000000;stroke-linecap:butt;stroke-width:0.75;" x="0" xlink:href="#C0_53_122b38d783" y="267.3"/>
    </g>
    <g clip-path="url(#p8885ea574e)">
     <use style="fill:none;stroke:#000000;stroke-linecap:butt;stroke-width:0.75;" x="0" xlink:href="#C0_54_24ed5b9ceb" y="267.3"/>
    </g>
    <g clip-path="url(#p8885ea574e)">
     <use style="fill:none;stroke:#000000;stroke-linecap:butt;stroke-width:0.75;" x="0" xlink:href="#C0_55_8634ea6ee1" y="267.3"/>
    </g>
    <g clip-path="url(#p8885ea574e)">
     <use style="fill:none;stroke:#000000;stroke-linecap:butt;stroke-width:0.75;" x="0" xlink:href="#C0_56_a5b782c48c" y="267.3"/>
    </g>
    <g clip-path="url(#p8885ea574e)">
     <use style="fill:none;stroke:#000000;stroke-linecap:butt;stroke-width:0.75;" x="0" xlink:href="#C0_57_3769ac9726" y="267.3"/>
    </g>
    <g clip-path="url(#p8885ea574e)">
     <use style="fill:none;stroke:#000000;stroke-linecap:butt;stroke-width:0.75;" x="0" xlink:href="#C0_58_6ed50523f4" y="267.3"/>
    </g>
    <g clip-path="url(#p8885ea574e)">
     <use style="fill:none;stroke:#000000;stroke-linecap:butt;stroke-width:0.75;" x="0" xlink:href="#C0_59_46646e91b6" y="267.3"/>
    </g>
    <g clip-path="url(#p8885ea574e)">
     <use style="fill:none;stroke:#000000;stroke-linecap:butt;stroke-width:0.75;" x="0" xlink:href="#C0_5a_b85d4cdccf" y="267.3"/>
    </g>
    <g clip-path="url(#p8885ea574e)">
     <use style="fill:none;stroke:#000000;stroke-linecap:butt;stroke-width:0.75;" x="0" xlink:href="#C0_5b_364d7985ed" y="267.3"/>
    </g>
    <g clip-path="url(#p8885ea574e)">
     <use style="fill:none;stroke:#000000;stroke-linecap:butt;stroke-width:0.75;" x="0" xlink:href="#C0_5c_9c40ee0054" y="267.3"/>
    </g>
    <g clip-path="url(#p8885ea574e)">
     <use style="fill:none;stroke:#000000;stroke-linecap:butt;stroke-width:0.75;" x="0" xlink:href="#C0_5d_67720da151" y="267.3"/>
    </g>
    <g clip-path="url(#p8885ea574e)">
     <use style="fill:none;stroke:#000000;stroke-linecap:butt;stroke-width:0.75;" x="0" xlink:href="#C0_5e_8291f5c50b" y="267.3"/>
    </g>
    <g clip-path="url(#p8885ea574e)">
     <use style="fill:none;stroke:#000000;stroke-linecap:butt;stroke-width:0.75;" x="0" xlink:href="#C0_5f_847bcc07bc" y="267.3"/>
    </g>
    <g clip-path="url(#p8885ea574e)">
     <use style="fill:none;stroke:#000000;stroke-linecap:butt;stroke-width:0.75;" x="0" xlink:href="#C0_60_a5b5c5e534" y="267.3"/>
    </g>
    <g clip-path="url(#p8885ea574e)">
     <use style="fill:none;stroke:#000000;stroke-linecap:butt;stroke-width:0.75;" x="0" xlink:href="#C0_61_1881a33693" y="267.3"/>
    </g>
   </g>
   <g id="matplotlib.axis_1"/>
   <g id="matplotlib.axis_2"/>
   <g id="PathCollection_1">
    <defs>
     <path d="
M0 2.23607
C0.593012 2.23607 1.16182 2.00046 1.58114 1.58114
C2.00046 1.16182 2.23607 0.593012 2.23607 0
C2.23607 -0.593012 2.00046 -1.16182 1.58114 -1.58114
C1.16182 -2.00046 0.593012 -2.23607 0 -2.23607
C-0.593012 -2.23607 -1.16182 -2.00046 -1.58114 -1.58114
C-2.00046 -1.16182 -2.23607 -0.593012 -2.23607 0
C-2.23607 0.593012 -2.00046 1.16182 -1.58114 1.58114
C-1.16182 2.00046 -0.593012 2.23607 0 2.23607
z
" id="C1_0_919e3f95db"/>
    </defs>
    <g clip-path="url(#p8885ea574e)">
     <use style="fill:#ffffff;stroke:#000000;stroke-linecap:butt;stroke-width:0.5;" x="44.3594660096" xlink:href="#C1_0_919e3f95db" y="150.341289152"/>
    </g>
    <g clip-path="url(#p8885ea574e)">
     <use style="fill:#ffffff;stroke:#000000;stroke-linecap:butt;stroke-width:0.5;" x="47.0874064494" xlink:href="#C1_0_919e3f95db" y="161.187537864"/>
    </g>
    <g clip-path="url(#p8885ea574e)">
     <use style="fill:#ffffff;stroke:#000000;stroke-linecap:butt;stroke-width:0.5;" x="51.127547345" xlink:href="#C1_0_919e3f95db" y="171.616345645"/>
    </g>
    <g clip-path="url(#p8885ea574e)">
     <use style="fill:#ffffff;stroke:#000000;stroke-linecap:butt;stroke-width:0.5;" x="56.4186442891" xlink:href="#C1_0_919e3f95db" y="181.469622425"/>
    </g>
    <g clip-path="url(#p8885ea574e)">
     <use style="fill:#ffffff;stroke:#000000;stroke-linecap:butt;stroke-width:0.5;" x="62.8804896594" xlink:href="#C1_0_919e3f95db" y="190.598002599"/>
    </g>
    <g clip-path="url(#p8885ea574e)">
     <use style="fill:#ffffff;stroke:#000000;stroke-linecap:butt;stroke-width:0.5;" x="70.4151284836" xlink:href="#C1_0_919e3f95db" y="198.863109251"/>
    </g>
    <g clip-path="url(#p8885ea574e)">
     <use style="fill:#ffffff;stroke:#000000;stroke-linecap:butt;stroke-width:0.5;" x="78.9083433373" xlink:href="#C1_0_919e3f95db" y="206.139651811"/>
    </g>
    <g clip-path="url(#p8885ea574e)">
     <use style="fill:#ffffff;stroke:#000000;stroke-linecap:butt;stroke-width:0.5;" x="88.2314045186" xlink:href="#C1_0_919e3f95db" y="212.317336159"/>
    </g>
    <g clip-path="url(#p8885ea574e)">
     <use style="fill:#ffffff;stroke:#000000;stroke-linecap:butt;stroke-width:0.5;" x="98.2429279648" xlink:href="#C1_0_919e3f95db" y="217.302482592"/>
    </g>
    <g clip-path="url(#p8885ea574e)">
     <use style="fill:#ffffff;stroke:#000000;stroke-linecap:butt;stroke-width:0.5;" x="108.791226025" xlink:href="#C1_0_919e3f95db" y="221.019559632"/>
    </g>
    <g clip-path="url(#p8885ea574e)">
     <use style="fill:#ffffff;stroke:#000000;stroke-linecap:butt;stroke-width:0.5;" x="119.716316349" xlink:href="#C1_0_919e3f95db" y="223.412191672"/>
    </g>
    <g clip-path="url(#p8885ea574e)">
     <use style="fill:#ffffff;stroke:#000000;stroke-linecap:butt;stroke-width:0.5;" x="130.852669555" xlink:href="#C1_0_919e3f95db" y="224.444127212"/>
    </g>
    <g clip-path="url(#p8885ea574e)">
     <use style="fill:#ffffff;stroke:#000000;stroke-linecap:butt;stroke-width:0.5;" x="142.031384467" xlink:href="#C1_0_919e3f95db" y="224.099715247"/>
    </g>
    <g clip-path="url(#p8885ea574e)">
     <use style="fill:#ffffff;stroke:#000000;stroke-linecap:butt;stroke-width:0.5;" x="153.083088958" xlink:href="#C1_0_919e3f95db" y="222.384174067"/>
    </g>
    <g clip-path="url(#p8885ea574e)">
     <use style="fill:#ffffff;stroke:#000000;stroke-linecap:butt;stroke-width:0.5;" x="163.840165688" xlink:href="#C1_0_919e3f95db" y="219.323522687"/>
    </g>
    <g clip-path="url(#p8885ea574e)">
     <use style="fill:#ffffff;stroke:#000000;stroke-linecap:butt;stroke-width:0.5;" x="174.139630903" xlink:href="#C1_0_919e3f95db" y="214.964133969"/>
    </g>
    <g clip-path="url(#p8885ea574e)">
     <use style="fill:#ffffff;stroke:#000000;stroke-linecap:butt;stroke-width:0.5;" x="183.825276212" xlink:href="#C1_0_919e3f95db" y="209.37212524"/>
    </g>
    <g clip-path="url(#p8885ea574e)">
     <use style="fill:#ffffff;stroke:#000000;stroke-linecap:butt;stroke-width:0.5;" x="192.750351443" xlink:href="#C1_0_919e3f95db" y="202.632222733"/>
    </g>
    <g clip-path="url(#p8885ea574e)">
     <use style="fill:#ffffff;stroke:#000000;stroke-linecap:butt;stroke-width:0.5;" x="200.7794931" xlink:href="#C1_0_919e3f95db" y="194.846648193"/>
    </g>
    <g clip-path="url(#p8885ea574e)">
     <use style="fill:#ffffff;stroke:#000000;stroke-linecap:butt;stroke-width:0.5;" x="117.077483523" xlink:href="#C1_0_919e3f95db" y="191.896374824"/>
    </g>
    <g clip-path="url(#p8885ea574e)">
     <use style="fill:#ffffff;stroke:#000000;stroke-linecap:butt;stroke-width:0.5;" x="207.791049204" xlink:href="#C1_0_919e3f95db" y="186.133363238"/>
    </g>
    <g clip-path="url(#p8885ea574e)">
     <use style="fill:#ffffff;stroke:#000000;stroke-linecap:butt;stroke-width:0.5;" x="213.678698426" xlink:href="#C1_0_919e3f95db" y="176.624481057"/>
    </g>
    <g clip-path="url(#p8885ea574e)">
     <use style="fill:#ffffff;stroke:#000000;stroke-linecap:butt;stroke-width:0.5;" x="218.353174028" xlink:href="#C1_0_919e3f95db" y="166.464187532"/>
    </g>
    <g clip-path="url(#p8885ea574e)">
     <use style="fill:#ffffff;stroke:#000000;stroke-linecap:butt;stroke-width:0.5;" x="187.002467207" xlink:href="#C1_0_919e3f95db" y="162.299654892"/>
    </g>
    <g clip-path="url(#p8885ea574e)">
     <use style="fill:#ffffff;stroke:#000000;stroke-linecap:butt;stroke-width:0.5;" x="221.743651603" xlink:href="#C1_0_919e3f95db" y="155.806424375"/>
    </g>
    <g clip-path="url(#p8885ea574e)">
     <use style="fill:#ffffff;stroke:#000000;stroke-linecap:butt;stroke-width:0.5;" x="223.798708962" xlink:href="#C1_0_919e3f95db" y="144.812834156"/>
    </g>
    <g clip-path="url(#p8885ea574e)">
     <use style="fill:#ffffff;stroke:#000000;stroke-linecap:butt;stroke-width:0.5;" x="193.1770247" xlink:href="#C1_0_919e3f95db" y="144.777525013"/>
    </g>
    <g clip-path="url(#p8885ea574e)">
     <use style="fill:#ffffff;stroke:#000000;stroke-linecap:butt;stroke-width:0.5;" x="224.487209302" xlink:href="#C1_0_919e3f95db" y="133.649984118"/>
    </g>
    <g clip-path="url(#p8885ea574e)">
     <use style="fill:#ffffff;stroke:#000000;stroke-linecap:butt;stroke-width:0.5;" x="194.20814134" xlink:href="#C1_0_919e3f95db" y="133.649989412"/>
    </g>
    <g clip-path="url(#p8885ea574e)">
     <use style="fill:#ffffff;stroke:#000000;stroke-linecap:butt;stroke-width:0.5;" x="223.798710381" xlink:href="#C1_0_919e3f95db" y="122.487177306"/>
    </g>
    <g clip-path="url(#p8885ea574e)">
     <use style="fill:#ffffff;stroke:#000000;stroke-linecap:butt;stroke-width:0.5;" x="193.749142045" xlink:href="#C1_0_919e3f95db" y="126.208117982"/>
    </g>
    <g clip-path="url(#p8885ea574e)">
     <use style="fill:#ffffff;stroke:#000000;stroke-linecap:butt;stroke-width:0.5;" x="221.743643855" xlink:href="#C1_0_919e3f95db" y="111.493544819"/>
    </g>
    <g clip-path="url(#p8885ea574e)">
     <use style="fill:#ffffff;stroke:#000000;stroke-linecap:butt;stroke-width:0.5;" x="192.379097654" xlink:href="#C1_0_919e3f95db" y="118.879029439"/>
    </g>
    <g clip-path="url(#p8885ea574e)">
     <use style="fill:#ffffff;stroke:#000000;stroke-linecap:butt;stroke-width:0.5;" x="154.728286469" xlink:href="#C1_0_919e3f95db" y="155.387708254"/>
    </g>
    <g clip-path="url(#p8885ea574e)">
     <use style="fill:#ffffff;stroke:#000000;stroke-linecap:butt;stroke-width:0.5;" x="218.3531782" xlink:href="#C1_0_919e3f95db" y="100.835823237"/>
    </g>
    <g clip-path="url(#p8885ea574e)">
     <use style="fill:#ffffff;stroke:#000000;stroke-linecap:butt;stroke-width:0.5;" x="213.678683398" xlink:href="#C1_0_919e3f95db" y="90.6754909575"/>
    </g>
    <g clip-path="url(#p8885ea574e)">
     <use style="fill:#ffffff;stroke:#000000;stroke-linecap:butt;stroke-width:0.5;" x="207.791055877" xlink:href="#C1_0_919e3f95db" y="81.1666461884"/>
    </g>
    <g clip-path="url(#p8885ea574e)">
     <use style="fill:#ffffff;stroke:#000000;stroke-linecap:butt;stroke-width:0.5;" x="200.779500881" xlink:href="#C1_0_919e3f95db" y="72.4533603427"/>
    </g>
    <g clip-path="url(#p8885ea574e)">
     <use style="fill:#ffffff;stroke:#000000;stroke-linecap:butt;stroke-width:0.5;" x="192.750360214" xlink:href="#C1_0_919e3f95db" y="64.6677847815"/>
    </g>
    <g clip-path="url(#p8885ea574e)">
     <use style="fill:#ffffff;stroke:#000000;stroke-linecap:butt;stroke-width:0.5;" x="183.825285839" xlink:href="#C1_0_919e3f95db" y="57.9278811392"/>
    </g>
    <g clip-path="url(#p8885ea574e)">
     <use style="fill:#ffffff;stroke:#000000;stroke-linecap:butt;stroke-width:0.5;" x="174.139641242" xlink:href="#C1_0_919e3f95db" y="52.3358711788"/>
    </g>
    <g clip-path="url(#p8885ea574e)">
     <use style="fill:#ffffff;stroke:#000000;stroke-linecap:butt;stroke-width:0.5;" x="163.840176582" xlink:href="#C1_0_919e3f95db" y="47.9764811519"/>
    </g>
    <g clip-path="url(#p8885ea574e)">
     <use style="fill:#ffffff;stroke:#000000;stroke-linecap:butt;stroke-width:0.5;" x="153.08310024" xlink:href="#C1_0_919e3f95db" y="44.9158284036"/>
    </g>
    <g clip-path="url(#p8885ea574e)">
     <use style="fill:#ffffff;stroke:#000000;stroke-linecap:butt;stroke-width:0.5;" x="142.031395967" xlink:href="#C1_0_919e3f95db" y="43.2002858187"/>
    </g>
    <g clip-path="url(#p8885ea574e)">
     <use style="fill:#ffffff;stroke:#000000;stroke-linecap:butt;stroke-width:0.5;" x="130.8526811" xlink:href="#C1_0_919e3f95db" y="42.8558724322"/>
    </g>
    <g clip-path="url(#p8885ea574e)">
     <use style="fill:#ffffff;stroke:#000000;stroke-linecap:butt;stroke-width:0.5;" x="167.100191556" xlink:href="#C1_0_919e3f95db" y="83.1685859217"/>
    </g>
    <g clip-path="url(#p8885ea574e)">
     <use style="fill:#ffffff;stroke:#000000;stroke-linecap:butt;stroke-width:0.5;" x="119.716327762" xlink:href="#C1_0_919e3f95db" y="43.8878065564"/>
    </g>
    <g clip-path="url(#p8885ea574e)">
     <use style="fill:#ffffff;stroke:#000000;stroke-linecap:butt;stroke-width:0.5;" x="124.360884898" xlink:href="#C1_0_919e3f95db" y="73.8085359209"/>
    </g>
    <g clip-path="url(#p8885ea574e)">
     <use style="fill:#ffffff;stroke:#000000;stroke-linecap:butt;stroke-width:0.5;" x="140.127700273" xlink:href="#C1_0_919e3f95db" y="104.07194192"/>
    </g>
    <g clip-path="url(#p8885ea574e)">
     <use style="fill:#ffffff;stroke:#000000;stroke-linecap:butt;stroke-width:0.5;" x="108.791237134" xlink:href="#C1_0_919e3f95db" y="46.2804372073"/>
    </g>
    <g clip-path="url(#p8885ea574e)">
     <use style="fill:#ffffff;stroke:#000000;stroke-linecap:butt;stroke-width:0.5;" x="98.2429784895" xlink:href="#C1_0_919e3f95db" y="49.9974960232"/>
    </g>
    <g clip-path="url(#p8885ea574e)">
     <use style="fill:#ffffff;stroke:#000000;stroke-linecap:butt;stroke-width:0.5;" x="88.2313770093" xlink:href="#C1_0_919e3f95db" y="54.9826797236"/>
    </g>
    <g clip-path="url(#p8885ea574e)">
     <use style="fill:#ffffff;stroke:#000000;stroke-linecap:butt;stroke-width:0.5;" x="78.9083525541" xlink:href="#C1_0_919e3f95db" y="61.160341229"/>
    </g>
    <g clip-path="url(#p8885ea574e)">
     <use style="fill:#ffffff;stroke:#000000;stroke-linecap:butt;stroke-width:0.5;" x="70.4151523232" xlink:href="#C1_0_919e3f95db" y="68.4368676329"/>
    </g>
    <g clip-path="url(#p8885ea574e)">
     <use style="fill:#ffffff;stroke:#000000;stroke-linecap:butt;stroke-width:0.5;" x="103.370917104" xlink:href="#C1_0_919e3f95db" y="81.2051182528"/>
    </g>
    <g clip-path="url(#p8885ea574e)">
     <use style="fill:#ffffff;stroke:#000000;stroke-linecap:butt;stroke-width:0.5;" x="62.8804697451" xlink:href="#C1_0_919e3f95db" y="76.7020221488"/>
    </g>
    <g clip-path="url(#p8885ea574e)">
     <use style="fill:#ffffff;stroke:#000000;stroke-linecap:butt;stroke-width:0.5;" x="56.4186389681" xlink:href="#C1_0_919e3f95db" y="85.8303861685"/>
    </g>
    <g clip-path="url(#p8885ea574e)">
     <use style="fill:#ffffff;stroke:#000000;stroke-linecap:butt;stroke-width:0.5;" x="84.2226209903" xlink:href="#C1_0_919e3f95db" y="98.6611062372"/>
    </g>
    <g clip-path="url(#p8885ea574e)">
     <use style="fill:#ffffff;stroke:#000000;stroke-linecap:butt;stroke-width:0.5;" x="113.251126531" xlink:href="#C1_0_919e3f95db" y="111.273492636"/>
    </g>
    <g clip-path="url(#p8885ea574e)">
     <use style="fill:#ffffff;stroke:#000000;stroke-linecap:butt;stroke-width:0.5;" x="51.1275521722" xlink:href="#C1_0_919e3f95db" y="95.6836438627"/>
    </g>
    <g clip-path="url(#p8885ea574e)">
     <use style="fill:#ffffff;stroke:#000000;stroke-linecap:butt;stroke-width:0.5;" x="47.0874165162" xlink:href="#C1_0_919e3f95db" y="106.112430491"/>
    </g>
    <g clip-path="url(#p8885ea574e)">
     <use style="fill:#ffffff;stroke:#000000;stroke-linecap:butt;stroke-width:0.5;" x="44.3594601728" xlink:href="#C1_0_919e3f95db" y="116.958742072"/>
    </g>
    <g clip-path="url(#p8885ea574e)">
     <use style="fill:#ffffff;stroke:#000000;stroke-linecap:butt;stroke-width:0.5;" x="42.9850781925" xlink:href="#C1_0_919e3f95db" y="128.057992535"/>
    </g>
    <g clip-path="url(#p8885ea574e)">
     <use style="fill:#ffffff;stroke:#000000;stroke-linecap:butt;stroke-width:0.5;" x="42.9850784593" xlink:href="#C1_0_919e3f95db" y="139.242011789"/>
    </g>
    <g clip-path="url(#p8885ea574e)">
     <use style="fill:#ffffff;stroke:#000000;stroke-linecap:butt;stroke-width:0.5;" x="74.1229716745" xlink:href="#C1_0_919e3f95db" y="122.522494383"/>
    </g>
    <g clip-path="url(#p8885ea574e)">
     <use style="fill:#ffffff;stroke:#000000;stroke-linecap:butt;stroke-width:0.5;" x="103.886485837" xlink:href="#C1_0_919e3f95db" y="128.086247192"/>
    </g>
   </g>
  </g>
  <g id="legend_1"/>
 </g>
 <defs>
  <clipPath id="p8885ea574e">
   <path d="
M133.65 231.3
C159.547 231.3 184.387 221.011 202.699 202.699
C221.011 184.387 231.3 159.547 231.3 133.65
C231.3 107.753 221.011 82.913 202.699 64.601
C184.387 46.289 159.547 36 133.65 36
C107.753 36 82.913 46.289 64.601 64.601
C46.289 82.913 36 107.753 36 133.65
C36 159.547 46.289 184.387 64.601 202.699
C82.913 221.011 107.753 231.3 133.65 231.3
z
"/>
  </clipPath>
 </defs>
</svg>
